<svg xmlns="http://www.w3.org/2000/svg" xmlns:xlink="http://www.w3.org/1999/xlink" width="150" zoomAndPan="magnify" viewBox="0 0 112.5 67.499998" height="90" preserveAspectRatio="xMidYMid meet" version="1.0"><defs><g/><clipPath id="7af9e04052"><path d="M 46.371094 6.699219 L 60.660156 6.699219 L 60.660156 20.988281 L 46.371094 20.988281 Z M 46.371094 6.699219 " clip-rule="nonzero"/></clipPath></defs><g fill="#000000" fill-opacity="1"><g transform="translate(15.88807, 51.818419)"><g><path d="M 28.390625 -27.09375 L 23.78125 -27.09375 L 23.78125 0 L 18.875 0 L 18.875 -17.765625 C 17.375 -19.878906 15.359375 -20.9375 12.828125 -20.9375 C 11.097656 -20.9375 9.6875 -20.285156 8.59375 -18.984375 C 7.507812 -17.691406 6.96875 -15.65625 6.96875 -12.875 C 6.96875 -10.53125 7.285156 -8.507812 7.921875 -6.8125 C 8.566406 -5.125 9.320312 -3.847656 10.1875 -2.984375 C 11.050781 -2.117188 11.800781 -1.6875 12.4375 -1.6875 C 12.28125 -1.070312 11.96875 -0.585938 11.5 -0.234375 C 11.039062 0.109375 10.425781 0.28125 9.65625 0.28125 C 8.3125 0.28125 7.015625 -0.269531 5.765625 -1.375 C 4.515625 -2.476562 3.503906 -4 2.734375 -5.9375 C 1.960938 -7.875 1.578125 -10.007812 1.578125 -12.34375 C 1.578125 -14.300781 1.96875 -16.0625 2.75 -17.625 C 3.539062 -19.195312 4.71875 -20.445312 6.28125 -21.375 C 7.851562 -22.300781 9.796875 -22.765625 12.109375 -22.765625 C 13.359375 -22.765625 14.585938 -22.601562 15.796875 -22.28125 C 17.015625 -21.96875 18.039062 -21.457031 18.875 -20.75 L 18.875 -27.09375 L -0.578125 -27.09375 L -0.578125 -28.8125 L 28.390625 -28.8125 Z M 28.390625 -27.09375 "/></g></g></g><g fill="#000000" fill-opacity="1"><g transform="translate(43.701082, 51.818419)"><g><path d="M 19.640625 -27.09375 L 12.484375 -27.09375 C 14.085938 -26.257812 15.320312 -25.128906 16.1875 -23.703125 C 17.050781 -22.273438 17.484375 -20.742188 17.484375 -19.109375 C 17.484375 -18.085938 17.257812 -17.0625 16.8125 -16.03125 C 16.363281 -15.007812 15.617188 -14.144531 14.578125 -13.4375 C 13.535156 -12.738281 12.179688 -12.390625 10.515625 -12.390625 C 9.554688 -12.390625 8.644531 -12.535156 7.78125 -12.828125 C 9.414062 -9.617188 10.800781 -7.269531 11.9375 -5.78125 C 13.070312 -4.289062 14.023438 -3.367188 14.796875 -3.015625 C 15.566406 -2.671875 16.460938 -2.5 17.484375 -2.5 C 17.035156 -1.507812 16.398438 -0.765625 15.578125 -0.265625 C 14.765625 0.234375 13.894531 0.484375 12.96875 0.484375 C 11.976562 0.484375 11.039062 0.109375 10.15625 -0.640625 C 9.28125 -1.398438 8.488281 -2.300781 7.78125 -3.34375 C 7.070312 -4.382812 6.222656 -5.785156 5.234375 -7.546875 C 4.046875 -9.617188 3.0625 -11.160156 2.28125 -12.171875 C 1.5 -13.179688 0.691406 -13.6875 -0.140625 -13.6875 C 0.242188 -14.363281 0.722656 -14.890625 1.296875 -15.265625 C 1.867188 -15.648438 2.476562 -15.84375 3.125 -15.84375 C 3.726562 -15.84375 4.207031 -15.78125 4.5625 -15.65625 C 4.914062 -15.53125 5.300781 -15.335938 5.71875 -15.078125 C 6.101562 -14.828125 6.492188 -14.628906 6.890625 -14.484375 C 7.296875 -14.335938 7.816406 -14.265625 8.453125 -14.265625 C 9.503906 -14.265625 10.453125 -14.640625 11.296875 -15.390625 C 12.148438 -16.140625 12.578125 -17.253906 12.578125 -18.734375 C 12.578125 -22.441406 11.28125 -25.226562 8.6875 -27.09375 L -0.625 -27.09375 L -0.625 -28.8125 L 19.640625 -28.8125 Z M 19.640625 -27.09375 "/></g></g></g><g fill="#000000" fill-opacity="1"><g transform="translate(60.562116, 51.818419)"><g><path d="M -6.484375 -35.78125 C -7.285156 -35.78125 -7.972656 -36.066406 -8.546875 -36.640625 C -9.128906 -37.222656 -9.421875 -37.914062 -9.421875 -38.71875 C -9.421875 -39.550781 -9.140625 -40.242188 -8.578125 -40.796875 C -8.015625 -41.359375 -7.316406 -41.640625 -6.484375 -41.640625 C -5.679688 -41.640625 -4.988281 -41.359375 -4.40625 -40.796875 C -3.832031 -40.242188 -3.546875 -39.550781 -3.546875 -38.71875 C -3.546875 -37.914062 -3.832031 -37.222656 -4.40625 -36.640625 C -4.988281 -36.066406 -5.679688 -35.78125 -6.484375 -35.78125 Z M -6.484375 -35.78125 "/></g></g></g><g fill="#000000" fill-opacity="1"><g transform="translate(62.771485, 51.818419)"><g><path d="M 33.90625 -28.8125 L 33.90625 -27.09375 L 29.296875 -27.09375 L 29.296875 0 L 24.40625 0 L 24.40625 -27.09375 L 13.546875 -27.09375 C 15.753906 -25.613281 17.425781 -23.816406 18.5625 -21.703125 C 19.695312 -19.597656 20.265625 -17.457031 20.265625 -15.28125 C 20.265625 -13.351562 19.863281 -11.582031 19.0625 -9.96875 C 18.269531 -8.351562 17.085938 -7.054688 15.515625 -6.078125 C 13.941406 -5.097656 12.082031 -4.609375 9.9375 -4.609375 C 8.113281 -4.609375 6.546875 -4.976562 5.234375 -5.71875 C 3.921875 -6.457031 2.9375 -7.441406 2.28125 -8.671875 C 1.625 -9.898438 1.296875 -11.238281 1.296875 -12.6875 C 1.296875 -14.3125 1.710938 -15.804688 2.546875 -17.171875 C 3.378906 -18.535156 4.515625 -19.613281 5.953125 -20.40625 C 7.398438 -21.207031 8.988281 -21.609375 10.71875 -21.609375 C 11.03125 -21.609375 11.265625 -21.472656 11.421875 -21.203125 C 11.585938 -20.929688 11.671875 -20.585938 11.671875 -20.171875 C 10.710938 -20.171875 9.804688 -19.84375 8.953125 -19.1875 C 8.109375 -18.53125 7.4375 -17.640625 6.9375 -16.515625 C 6.445312 -15.398438 6.203125 -14.21875 6.203125 -12.96875 C 6.203125 -10.789062 6.609375 -9.078125 7.421875 -7.828125 C 8.234375 -6.578125 9.21875 -5.953125 10.375 -5.953125 C 11.84375 -5.953125 13.039062 -6.71875 13.96875 -8.25 C 14.90625 -9.789062 15.375 -12.132812 15.375 -15.28125 C 15.375 -17.96875 14.722656 -20.421875 13.421875 -22.640625 C 12.128906 -24.867188 10.488281 -26.351562 8.5 -27.09375 L -0.578125 -27.09375 L -0.578125 -28.8125 Z M 33.90625 -28.8125 "/></g></g></g><g clip-path="url(#7af9e04052)"><path fill="#a48b41" d="M 53.5625 6.699219 C 53.285156 7.539062 52.917969 8.335938 52.453125 9.085938 C 51.992188 9.839844 51.445312 10.527344 50.824219 11.152344 C 50.199219 11.777344 49.511719 12.320312 48.757812 12.785156 C 48.003906 13.246094 47.210938 13.617188 46.371094 13.894531 C 47.210938 14.167969 48.003906 14.539062 48.757812 15.003906 C 49.511719 15.464844 50.199219 16.007812 50.824219 16.632812 C 51.445312 17.257812 51.992188 17.945312 52.453125 18.699219 C 52.917969 19.449219 53.285156 20.246094 53.5625 21.085938 C 53.839844 20.246094 54.210938 19.449219 54.671875 18.699219 C 55.136719 17.945312 55.679688 17.257812 56.304688 16.632812 C 56.929688 16.007812 57.617188 15.464844 58.367188 15.003906 C 59.121094 14.539062 59.917969 14.167969 60.753906 13.894531 C 59.917969 13.617188 59.121094 13.246094 58.367188 12.785156 C 57.617188 12.320312 56.929688 11.777344 56.304688 11.152344 C 55.679688 10.527344 55.136719 9.839844 54.671875 9.085938 C 54.210938 8.335938 53.839844 7.539062 53.5625 6.699219 Z M 53.5625 6.699219 " fill-opacity="1" fill-rule="nonzero"/></g></svg>